<mxfile host="Electron" agent="Mozilla/5.0 (Windows NT 10.0; Win64; x64) AppleWebKit/537.36 (KHTML, like Gecko) draw.io/26.2.15 Chrome/134.0.6998.205 Electron/35.2.1 Safari/537.36" version="26.2.15">
  <diagram name="Page-1" id="jpJCMYjxv231No0BezZH">
    <mxGraphModel dx="2484" dy="1252" grid="0" gridSize="10" guides="1" tooltips="1" connect="1" arrows="1" fold="1" page="0" pageScale="1" pageWidth="850" pageHeight="1100" math="0" shadow="0">
      <root>
        <mxCell id="0" />
        <mxCell id="1" parent="0" />
        <mxCell id="aMUh-eec0_-4Qq3_hzO2-1" value="&lt;font style=&quot;font-size: 25px;&quot;&gt;&lt;b&gt;PHẦN MỀM GIÁM SÁT VÀ PHÂN TÍCH TÌNH TRẠNG GIAO THÔNG TẠI TP.HCM&lt;/b&gt;&lt;/font&gt;" style="text;html=1;align=center;verticalAlign=middle;whiteSpace=wrap;rounded=0;fillColor=#d5e8d4;strokeColor=#82b366;" parent="1" vertex="1">
          <mxGeometry x="208" y="48" width="730" height="70" as="geometry" />
        </mxCell>
        <mxCell id="aMUh-eec0_-4Qq3_hzO2-2" value="" style="whiteSpace=wrap;html=1;aspect=fixed;fillColor=#f5f5f5;strokeColor=#666666;fontColor=#333333;gradientColor=none;" parent="1" vertex="1">
          <mxGeometry x="90" y="116" width="980" height="980" as="geometry" />
        </mxCell>
        <mxCell id="aMUh-eec0_-4Qq3_hzO2-4" value="KHÁCH HÀNG" style="shape=umlActor;verticalLabelPosition=bottom;verticalAlign=top;html=1;outlineConnect=0;fontSize=20;fillColor=#dae8fc;strokeColor=#6c8ebf;" parent="1" vertex="1">
          <mxGeometry x="-100" y="427" width="94" height="140" as="geometry" />
        </mxCell>
        <mxCell id="aMUh-eec0_-4Qq3_hzO2-5" value="&lt;div&gt;QUẢN TRỊ HỆ THỐNG&lt;/div&gt;" style="shape=umlActor;verticalLabelPosition=bottom;verticalAlign=top;html=1;outlineConnect=0;fontSize=20;fillColor=#f5f5f5;fontColor=#333333;strokeColor=#666666;" parent="1" vertex="1">
          <mxGeometry x="1231" y="395" width="90" height="138" as="geometry" />
        </mxCell>
        <mxCell id="aMUh-eec0_-4Qq3_hzO2-7" value="&lt;font style=&quot;font-size: 22px;&quot;&gt;HIỂN THỊ BẢN ĐỒ VÀ BIỂU ĐỒ&amp;nbsp;&lt;/font&gt;" style="ellipse;whiteSpace=wrap;html=1;" parent="1" vertex="1">
          <mxGeometry x="569" y="908" width="215" height="101" as="geometry" />
        </mxCell>
        <mxCell id="aMUh-eec0_-4Qq3_hzO2-8" value="&lt;span style=&quot;font-size: 22px;&quot;&gt;NHẬP DỮ LIỆU MÔ PHỎNG&lt;/span&gt;" style="ellipse;whiteSpace=wrap;html=1;" parent="1" vertex="1">
          <mxGeometry x="208" y="121" width="178.5" height="103" as="geometry" />
        </mxCell>
        <mxCell id="aMUh-eec0_-4Qq3_hzO2-10" value="&lt;font style=&quot;font-size: 22px;&quot;&gt;THU THẬP DỮ LIỆU&amp;nbsp;&lt;/font&gt;" style="ellipse;whiteSpace=wrap;html=1;" parent="1" vertex="1">
          <mxGeometry x="290" y="224" width="255" height="108" as="geometry" />
        </mxCell>
        <mxCell id="aMUh-eec0_-4Qq3_hzO2-11" value="&lt;span style=&quot;font-size: 22px;&quot;&gt;LÀM SẠCH VÀ CHUẨN HÓA DỮ LIỆU&amp;nbsp;&lt;/span&gt;" style="ellipse;whiteSpace=wrap;html=1;" parent="1" vertex="1">
          <mxGeometry x="215.5" y="350" width="194" height="93" as="geometry" />
        </mxCell>
        <mxCell id="aMUh-eec0_-4Qq3_hzO2-12" value="&lt;span style=&quot;font-size: 22px;&quot;&gt;PHÂN TÍCH MẬT ĐỘ , TỐC ĐỘ GIAO THÔNG&amp;nbsp;&lt;/span&gt;" style="ellipse;whiteSpace=wrap;html=1;" parent="1" vertex="1">
          <mxGeometry x="175" y="466" width="284.25" height="109" as="geometry" />
        </mxCell>
        <mxCell id="aMUh-eec0_-4Qq3_hzO2-13" value="&lt;span style=&quot;font-size: 22px;&quot;&gt;GỢI Ý TUYẾN ĐƯỜNG&amp;nbsp;&lt;/span&gt;" style="ellipse;whiteSpace=wrap;html=1;" parent="1" vertex="1">
          <mxGeometry x="195" y="736" width="223" height="115" as="geometry" />
        </mxCell>
        <mxCell id="aMUh-eec0_-4Qq3_hzO2-15" value="&lt;span style=&quot;font-size: 22px;&quot;&gt;QUẢN LÝ DỮ LIỆU GIAO THÔNG&amp;nbsp;&lt;/span&gt;" style="ellipse;whiteSpace=wrap;html=1;" parent="1" vertex="1">
          <mxGeometry x="817" y="392" width="204" height="152" as="geometry" />
        </mxCell>
        <mxCell id="aMUh-eec0_-4Qq3_hzO2-17" value="&lt;span style=&quot;font-size: 22px;&quot;&gt;QUẢN LÝ DỮ LIỆU VỊ TRÍ&lt;/span&gt;" style="ellipse;whiteSpace=wrap;html=1;" parent="1" vertex="1">
          <mxGeometry x="808" y="201" width="204" height="152" as="geometry" />
        </mxCell>
        <mxCell id="aMUh-eec0_-4Qq3_hzO2-23" value="&lt;span style=&quot;font-size: 22px;&quot;&gt;PHÁT CẢNH BÁO ÚN TẮC&amp;nbsp;&lt;/span&gt;" style="ellipse;whiteSpace=wrap;html=1;" parent="1" vertex="1">
          <mxGeometry x="593" y="731" width="193" height="136" as="geometry" />
        </mxCell>
        <mxCell id="aMUh-eec0_-4Qq3_hzO2-24" value="&lt;span style=&quot;font-size: 22px;&quot;&gt;DỰ ĐOÁN TÌNH TRẠNG GIAO THÔNG&amp;nbsp;&lt;/span&gt;" style="ellipse;whiteSpace=wrap;html=1;" parent="1" vertex="1">
          <mxGeometry x="208" y="575" width="230" height="132" as="geometry" />
        </mxCell>
        <mxCell id="aMUh-eec0_-4Qq3_hzO2-25" value="&lt;span style=&quot;font-size: 22px;&quot;&gt;XUẤT BÁO CÁO&amp;nbsp;&lt;/span&gt;" style="ellipse;whiteSpace=wrap;html=1;" parent="1" vertex="1">
          <mxGeometry x="522" y="373" width="204" height="152" as="geometry" />
        </mxCell>
        <mxCell id="aMUh-eec0_-4Qq3_hzO2-26" value="" style="endArrow=classic;html=1;rounded=0;exitX=1;exitY=0.3333333333333333;exitDx=0;exitDy=0;exitPerimeter=0;entryX=0;entryY=0.5;entryDx=0;entryDy=0;" parent="1" source="aMUh-eec0_-4Qq3_hzO2-4" target="aMUh-eec0_-4Qq3_hzO2-8" edge="1">
          <mxGeometry width="50" height="50" relative="1" as="geometry">
            <mxPoint x="-247" y="649" as="sourcePoint" />
            <mxPoint x="-197" y="599" as="targetPoint" />
          </mxGeometry>
        </mxCell>
        <mxCell id="aMUh-eec0_-4Qq3_hzO2-28" value="" style="endArrow=classic;html=1;rounded=0;entryX=0;entryY=0.5;entryDx=0;entryDy=0;exitX=1;exitY=0.3333333333333333;exitDx=0;exitDy=0;exitPerimeter=0;" parent="1" source="aMUh-eec0_-4Qq3_hzO2-4" target="aMUh-eec0_-4Qq3_hzO2-10" edge="1">
          <mxGeometry width="50" height="50" relative="1" as="geometry">
            <mxPoint x="-201" y="509" as="sourcePoint" />
            <mxPoint x="-151" y="459" as="targetPoint" />
          </mxGeometry>
        </mxCell>
        <mxCell id="aMUh-eec0_-4Qq3_hzO2-29" value="" style="endArrow=classic;html=1;rounded=0;entryX=0;entryY=0.5;entryDx=0;entryDy=0;exitX=1;exitY=0.3333333333333333;exitDx=0;exitDy=0;exitPerimeter=0;" parent="1" source="aMUh-eec0_-4Qq3_hzO2-4" target="aMUh-eec0_-4Qq3_hzO2-11" edge="1">
          <mxGeometry width="50" height="50" relative="1" as="geometry">
            <mxPoint x="-309" y="725" as="sourcePoint" />
            <mxPoint x="-259" y="675" as="targetPoint" />
          </mxGeometry>
        </mxCell>
        <mxCell id="aMUh-eec0_-4Qq3_hzO2-30" value="" style="endArrow=classic;html=1;rounded=0;entryX=0;entryY=0.5;entryDx=0;entryDy=0;exitX=1;exitY=0.3333333333333333;exitDx=0;exitDy=0;exitPerimeter=0;" parent="1" source="aMUh-eec0_-4Qq3_hzO2-4" target="aMUh-eec0_-4Qq3_hzO2-12" edge="1">
          <mxGeometry width="50" height="50" relative="1" as="geometry">
            <mxPoint x="-137" y="680" as="sourcePoint" />
            <mxPoint x="-87" y="630" as="targetPoint" />
          </mxGeometry>
        </mxCell>
        <mxCell id="aMUh-eec0_-4Qq3_hzO2-31" value="" style="endArrow=classic;html=1;rounded=0;entryX=0;entryY=0.5;entryDx=0;entryDy=0;exitX=1;exitY=0.3333333333333333;exitDx=0;exitDy=0;exitPerimeter=0;" parent="1" source="aMUh-eec0_-4Qq3_hzO2-4" target="aMUh-eec0_-4Qq3_hzO2-24" edge="1">
          <mxGeometry width="50" height="50" relative="1" as="geometry">
            <mxPoint x="-49" y="661" as="sourcePoint" />
            <mxPoint x="1" y="611" as="targetPoint" />
          </mxGeometry>
        </mxCell>
        <mxCell id="aMUh-eec0_-4Qq3_hzO2-32" value="" style="endArrow=classic;html=1;rounded=0;entryX=1;entryY=0.5;entryDx=0;entryDy=0;exitX=0;exitY=0.3333333333333333;exitDx=0;exitDy=0;exitPerimeter=0;" parent="1" source="aMUh-eec0_-4Qq3_hzO2-5" target="aMUh-eec0_-4Qq3_hzO2-17" edge="1">
          <mxGeometry width="50" height="50" relative="1" as="geometry">
            <mxPoint x="1124" y="483" as="sourcePoint" />
            <mxPoint x="1174" y="433" as="targetPoint" />
          </mxGeometry>
        </mxCell>
        <mxCell id="aMUh-eec0_-4Qq3_hzO2-33" value="" style="endArrow=classic;html=1;rounded=0;entryX=1;entryY=0.5;entryDx=0;entryDy=0;exitX=0;exitY=0.3333333333333333;exitDx=0;exitDy=0;exitPerimeter=0;" parent="1" source="aMUh-eec0_-4Qq3_hzO2-5" target="aMUh-eec0_-4Qq3_hzO2-15" edge="1">
          <mxGeometry width="50" height="50" relative="1" as="geometry">
            <mxPoint x="1145" y="499" as="sourcePoint" />
            <mxPoint x="1195" y="449" as="targetPoint" />
          </mxGeometry>
        </mxCell>
        <mxCell id="aMUh-eec0_-4Qq3_hzO2-34" value="" style="endArrow=classic;html=1;rounded=0;entryX=1;entryY=0;entryDx=0;entryDy=0;exitX=0;exitY=0.3333333333333333;exitDx=0;exitDy=0;exitPerimeter=0;" parent="1" source="aMUh-eec0_-4Qq3_hzO2-5" target="aMUh-eec0_-4Qq3_hzO2-23" edge="1">
          <mxGeometry width="50" height="50" relative="1" as="geometry">
            <mxPoint x="1159" y="625" as="sourcePoint" />
            <mxPoint x="1044" y="600" as="targetPoint" />
          </mxGeometry>
        </mxCell>
        <mxCell id="aMUh-eec0_-4Qq3_hzO2-35" value="" style="endArrow=classic;html=1;rounded=0;entryX=0;entryY=0.5;entryDx=0;entryDy=0;exitX=1;exitY=0.3333333333333333;exitDx=0;exitDy=0;exitPerimeter=0;" parent="1" source="aMUh-eec0_-4Qq3_hzO2-4" target="aMUh-eec0_-4Qq3_hzO2-13" edge="1">
          <mxGeometry width="50" height="50" relative="1" as="geometry">
            <mxPoint x="49" y="760" as="sourcePoint" />
            <mxPoint x="99" y="710" as="targetPoint" />
          </mxGeometry>
        </mxCell>
        <mxCell id="aMUh-eec0_-4Qq3_hzO2-36" value="" style="endArrow=classic;html=1;rounded=0;entryX=0;entryY=0.5;entryDx=0;entryDy=0;exitX=1;exitY=0.3333333333333333;exitDx=0;exitDy=0;exitPerimeter=0;" parent="1" source="aMUh-eec0_-4Qq3_hzO2-4" target="aMUh-eec0_-4Qq3_hzO2-7" edge="1">
          <mxGeometry width="50" height="50" relative="1" as="geometry">
            <mxPoint x="33" y="721" as="sourcePoint" />
            <mxPoint x="83" y="671" as="targetPoint" />
            <Array as="points">
              <mxPoint x="164" y="954" />
            </Array>
          </mxGeometry>
        </mxCell>
        <mxCell id="aMUh-eec0_-4Qq3_hzO2-38" value="" style="endArrow=classic;html=1;rounded=0;entryX=0;entryY=0.5;entryDx=0;entryDy=0;exitX=1;exitY=0.3333333333333333;exitDx=0;exitDy=0;exitPerimeter=0;" parent="1" source="aMUh-eec0_-4Qq3_hzO2-4" target="aMUh-eec0_-4Qq3_hzO2-25" edge="1">
          <mxGeometry width="50" height="50" relative="1" as="geometry">
            <mxPoint x="144" y="622" as="sourcePoint" />
            <mxPoint x="194" y="572" as="targetPoint" />
            <Array as="points">
              <mxPoint x="276" y="453" />
            </Array>
          </mxGeometry>
        </mxCell>
        <mxCell id="aMUh-eec0_-4Qq3_hzO2-42" value="&lt;span style=&quot;font-size: 22px;&quot;&gt;TƯƠNG TÁC CHỌN KHU VỰC&amp;nbsp;&lt;/span&gt;" style="ellipse;whiteSpace=wrap;html=1;" parent="1" vertex="1">
          <mxGeometry x="556" y="577" width="180" height="130" as="geometry" />
        </mxCell>
        <mxCell id="aMUh-eec0_-4Qq3_hzO2-43" value="" style="endArrow=classic;html=1;rounded=0;entryX=0;entryY=0.5;entryDx=0;entryDy=0;exitX=1;exitY=0.3333333333333333;exitDx=0;exitDy=0;exitPerimeter=0;" parent="1" source="aMUh-eec0_-4Qq3_hzO2-4" target="aMUh-eec0_-4Qq3_hzO2-42" edge="1">
          <mxGeometry width="50" height="50" relative="1" as="geometry">
            <mxPoint x="-151" y="734" as="sourcePoint" />
            <mxPoint x="-101" y="684" as="targetPoint" />
            <Array as="points">
              <mxPoint x="198" y="710" />
              <mxPoint x="415" y="730" />
            </Array>
          </mxGeometry>
        </mxCell>
        <mxCell id="aMUh-eec0_-4Qq3_hzO2-47" value="" style="endArrow=classic;html=1;rounded=0;exitX=0;exitY=0.3333333333333333;exitDx=0;exitDy=0;exitPerimeter=0;entryX=1;entryY=0.5;entryDx=0;entryDy=0;" parent="1" source="aMUh-eec0_-4Qq3_hzO2-5" target="aMUh-eec0_-4Qq3_hzO2-7" edge="1">
          <mxGeometry width="50" height="50" relative="1" as="geometry">
            <mxPoint x="1137" y="738" as="sourcePoint" />
            <mxPoint x="1070" y="731" as="targetPoint" />
          </mxGeometry>
        </mxCell>
        <mxCell id="nx3wxbE2qrYHI1Tomcyz-3" value="" style="endArrow=classic;html=1;rounded=0;entryX=0;entryY=0.5;entryDx=0;entryDy=0;exitX=1;exitY=0.3333333333333333;exitDx=0;exitDy=0;exitPerimeter=0;" parent="1" source="aMUh-eec0_-4Qq3_hzO2-4" target="aMUh-eec0_-4Qq3_hzO2-23" edge="1">
          <mxGeometry width="50" height="50" relative="1" as="geometry">
            <mxPoint x="-206" y="688" as="sourcePoint" />
            <mxPoint x="-156" y="638" as="targetPoint" />
            <Array as="points">
              <mxPoint x="250" y="715" />
            </Array>
          </mxGeometry>
        </mxCell>
        <mxCell id="nx3wxbE2qrYHI1Tomcyz-4" value="" style="endArrow=classic;html=1;rounded=0;entryX=1;entryY=0;entryDx=0;entryDy=0;exitX=0;exitY=0.3333333333333333;exitDx=0;exitDy=0;exitPerimeter=0;" parent="1" source="aMUh-eec0_-4Qq3_hzO2-5" target="aMUh-eec0_-4Qq3_hzO2-25" edge="1">
          <mxGeometry width="50" height="50" relative="1" as="geometry">
            <mxPoint x="1079" y="429" as="sourcePoint" />
            <mxPoint x="1129" y="379" as="targetPoint" />
            <Array as="points">
              <mxPoint x="974" y="376" />
            </Array>
          </mxGeometry>
        </mxCell>
      </root>
    </mxGraphModel>
  </diagram>
</mxfile>
